# xmcd CD database file
#
# Track frame offsets:
#	150
#	18711
#	35640
#	62413
#	76407
#	94608
#	108075
#	124253
#	138763
#
# Disc length: 2074 seconds
#
# Revision: 0
# Processed by: cddbd v1.4PL0 Copyright (c) Steve Scherf et al.
# Submitted via: CDex 1.50
#
DISCID=6c081809
DTITLE=Travis Nelson - Wanna Be Me
DYEAR=2001
DGENRE=Country
TTITLE0=Wanna Be Me
TTITLE1=Long Story Short
TTITLE2=Hero To Her
TTITLE3=Never Stop Loving You
TTITLE4=Turn Out The Stars
TTITLE5=Heart Break Express
TTITLE6=Drive Time
TTITLE7=This Side Of Heaven
TTITLE8=Cowboy Up
EXTD=YEAR: 2001
EXTT0=
EXTT1=
EXTT2=
EXTT3=
EXTT4=
EXTT5=
EXTT6=
EXTT7=
EXTT8=
PLAYORDER=
